<svg width="32" height="31" viewBox="0 0 32 31" fill="none" xmlns="http://www.w3.org/2000/svg">
<path fill-rule="evenodd" clip-rule="evenodd" d="M16.0013 2.875C12.9674 2.875 10.3587 4.68639 9.19375 7.28247C9.04562 7.61254 8.95149 7.8214 8.87558 7.96812C8.86201 7.99435 8.85047 8.01562 8.84093 8.03259L8.81924 8.03424C8.70083 8.04241 8.53685 8.04297 8.25 8.04297C5.55761 8.04297 3.375 10.2256 3.375 12.918C3.375 15.6104 5.55761 17.793 8.25 17.793H9.58564L11.5856 15.793H8.25C6.66218 15.793 5.375 14.5058 5.375 12.918C5.375 11.3301 6.66218 10.043 8.25 10.043L8.27863 10.043H8.27864C8.52659 10.043 8.76107 10.043 8.95691 10.0295C9.16451 10.0152 9.41943 9.98156 9.67645 9.86535C9.87653 9.77488 10.0133 9.68635 10.1778 9.54084C10.4065 9.33842 10.5525 9.07925 10.6519 8.88712C10.7566 8.68473 10.8737 8.42397 11.0072 8.12634L11.0072 8.12629L11.0184 8.10131C11.8727 6.19763 13.7836 4.875 16.0013 4.875C18.2198 4.875 20.1312 6.19856 20.9851 8.10332L20.9963 8.12829C21.1292 8.42481 21.2456 8.6846 21.3498 8.88628C21.4487 9.07771 21.5939 9.33598 21.8214 9.53807C21.9876 9.68574 22.1261 9.77548 22.3289 9.86673C22.5851 9.98205 22.839 10.0154 23.0458 10.0296C23.2409 10.043 23.4745 10.043 23.7215 10.043L23.75 10.043C25.3378 10.043 26.625 11.3301 26.625 12.918C26.625 14.5058 25.3378 15.793 23.75 15.793H20.4144L22.4144 17.793H23.75C26.4424 17.793 28.625 15.6104 28.625 12.918C28.625 10.2256 26.4424 8.04297 23.75 8.04297C23.4643 8.04297 23.3009 8.04241 23.1829 8.03431L23.1612 8.03266C23.1517 8.01574 23.1402 7.99454 23.1267 7.96839C23.0512 7.82217 22.9575 7.61408 22.8101 7.28522C21.6457 4.68767 19.0363 2.875 16.0013 2.875Z" fill="white"/>
<path d="M10.832 20.9583L15.9987 26.125M15.9987 26.125L21.1654 20.9583M15.9987 26.125L15.9987 14.5" stroke="white" stroke-width="2" stroke-linecap="round" stroke-linejoin="round"/>
</svg>
