<svg width="36" height="39" viewBox="0 0 36 39" fill="none" xmlns="http://www.w3.org/2000/svg">
<path d="M35.5115 13.4895L18.911 0.285158C18.6223 0.0551274 18.2647 -0.0319776 17.9229 0.0103047C17.6247 0.0083315 17.3291 0.0934623 17.0887 0.285158L0.487527 13.4895C0.166666 13.7449 -0.0135295 14.1342 0.000793718 14.5399C0.015117 14.9455 0.223101 15.3216 0.561439 15.5533L2.73699 17.0474V29.6678C2.73699 30.1248 2.98251 30.5485 3.38301 30.7805L17.2405 38.8199C17.2443 38.8218 17.2489 38.823 17.2529 38.8252C17.3213 38.8641 17.3961 38.8895 17.4709 38.9157C17.505 38.9276 17.5365 38.9464 17.5714 38.9557C17.6683 38.9808 17.7691 38.9921 17.8699 38.9946C17.8823 38.9949 17.8946 39 17.9069 39H17.9072H17.9081C17.9295 39 17.9507 38.9927 17.9722 38.9918C18.0633 38.987 18.1547 38.9797 18.2438 38.9563C18.2753 38.9481 18.3037 38.9304 18.3355 38.9197C18.4111 38.8943 18.4879 38.8695 18.5589 38.8295C18.5618 38.8278 18.5638 38.8249 18.5672 38.8232C18.5693 38.8216 18.5721 38.8216 18.5747 38.8201L32.4308 30.7808C32.8316 30.5488 33.0768 30.1254 33.0768 29.6681V17.1754L35.4391 15.5528C35.7775 15.3205 35.9849 14.945 35.9992 14.5393C36.0135 14.134 35.8333 13.7446 35.5125 13.4893L35.5115 13.4895ZM19.2264 22.1473V3.8574L32.5038 14.4183L19.2264 22.1473ZM16.6017 3.99452V22.1552L3.49658 14.4183L16.6017 3.99452ZM16.5942 35.4469L5.36296 28.9307V18.634L16.5942 25.1499V35.4469ZM30.4503 28.9307L19.2198 35.4469V25.1501L30.451 18.6343L30.4513 28.931L30.4503 28.9307Z" fill="#EA7627"/>
</svg>
